{"title":"Katy Perry - Rise - 2016 - Full HD 1080p.mkv","uid":15501201,"size":73984007,"categoryP":"video","categoryS":"music_videos","magnet":"?xt=urn:btih:fcf9621dd5ed8c73b26fb891739d53fdfdeeb5e4&amp;dn=Katy+Perry+-+Rise+-+2016+-+Full+HD+1080p.mkv&amp;tr=udp%3A%2F%2Ftracker.leechers-paradise.org%3A6969&amp;tr=udp%3A%2F%2Fzer0day.ch%3A1337&amp;tr=udp%3A%2F%2Fopen.demonii.com%3A1337&amp;tr=udp%3A%2F%2Ftracker.coppersurfer.tk%3A6969&amp;tr=udp%3A%2F%2Fexodus.desync.com%3A6969","seeders":8,"leechers":2,"uploader":"MdTaRa","files":1,"time":1470511891,"description":"===================================================================\r\nGeneral\r\nKaty Perry - Rise - 2016 - Full HD 1080p.mkv\r\nFormat                      : Matroska\r\nFormat version              : Version 4 / Version 2\r\nFile size                   : 70.6 MiB\r\nDuration                    : 3 min\r\nOverall bit rate mode       : Variable\r\nOverall bit rate            : 3 001 kb/s\r\n======================================================================\r\nVideo\r\nID                          : 1\r\nFormat                      : AVC\r\nFormat/Info                 : Advanced Video Codec\r\nFormat profile              :   \r\nFormat settings, CABAC      : Yes\r\nFormat settings, ReFrames   : 3 frames\r\nCodec ID                    : V_MPEG4/ISO/AVC\r\nDuration                    : 3 min\r\nBit rate mode               : Variable\r\nBit rate                    : 2 806 kb/s\r\nMaximum bit rate            : 40.0 Mb/s\r\nWidth                       : 1 920 pixels\r\nHeight                      : 816 pixels\r\nDisplay aspect ratio        : 2.35:1\r\nFrame rate mode             : Constant\r\nFrame rate                  : 23.976 (24000/1001) FPS\r\nColor space                 : YUV\r\nChroma subsampling          : 4:2:0\r\nBit depth                   : 8 bits\r\nScan type                   : Progressive\r\nBits/(Pixel*Frame)          : 0.075\r\nStream size                 : 66.0 MiB (93%)\r\nTitle                       : .....::::: TaRa :::::.....\r\nLanguage                    : English\r\nDefault                     : Yes\r\nForced                      : No\r\n=====================================================================\r\nAudio\r\nID                          : 2\r\nFormat                      : AAC\r\nFormat/Info                 : Advanced Audio Codec\r\nFormat profile              : LC\r\nCodec ID                    : A_AAC\r\nDuration                    : 3 min\r\nBit rate                    : 192 kb/s\r\nChannel(s)                  : 2 channels\r\nChannel positions           : Front: L R\r\nSampling rate               : 44.1 kHz\r\nFrame rate                  : 43.066 FPS (1024 spf)\r\nCompression mode            : Lossy\r\nDelay relative to video     : 10 ms\r\nStream size                 : 4.52 MiB (6%)\r\nTitle                       : .....::::: TaRa :::::.....\r\nLanguage                    : English\r\nDefault                     : Yes\r\nForced                      : No\r\n======================================================================== \nhttp://imgur.com/axcN47u \nhttp://imgur.com/Smieo4Y","torrent":{"xt":"urn:btih:fcf9621dd5ed8c73b26fb891739d53fdfdeeb5e4","amp;dn":"Katy+Perry+-+Rise+-+2016+-+Full+HD+1080p.mkv","amp;tr":["udp%3A%2F%2Ftracker.leechers-paradise.org%3A6969","udp%3A%2F%2Fzer0day.ch%3A1337","udp%3A%2F%2Fopen.demonii.com%3A1337","udp%3A%2F%2Ftracker.coppersurfer.tk%3A6969","udp%3A%2F%2Fexodus.desync.com%3A6969"],"infoHash":"fcf9621dd5ed8c73b26fb891739d53fdfdeeb5e4","infoHashBuffer":{"type":"Buffer","data":[252,249,98,29,213,237,140,115,178,111,184,145,115,157,83,253,253,238,181,228]},"announce":[],"urlList":[]}}